PathFileType	4	(X/Y/Z)	/Users/itak/Documents/Research/Walk-IL/dataset/trc/00425_00167.trc
DataRate	CameraRate	NumFrames	NumMarkers	Units	OrigDataRate	OrigDataStartFrame	OrigNumFrames
100.000000	100.000000	4	53	mm	100.000000	282	754
Frame#	Time	RPSI			LPSI			L3			STRN			T10			C7			CLAV			RBAK			LBAK			LSHO			LUPA			LAEL			LAOL			LWTS			LWPS			LFRA			LIFD			LHPS			LHTS			RSHO			RUPA			RAEL			RAOL			RWTS			RWPS			RFRA			RIFD			RHTS			RHPS			RBHD			LFHD			RFHD			LBHD			LHIP			RHIP			RASI			LASI			LKNE			LTHI			LANK			LTIP			LTOE			LMT1			LMT5			LHEE			RKNE			RTHI			RANK			RTIP			RTOE			RMT1			RMT5			RHEE			
		X1	Y1	Z1	X2	Y2	Z2	X3	Y3	Z3	X4	Y4	Z4	X5	Y5	Z5	X6	Y6	Z6	X7	Y7	Z7	X8	Y8	Z8	X9	Y9	Z9	X10	Y10	Z10	X11	Y11	Z11	X12	Y12	Z12	X13	Y13	Z13	X14	Y14	Z14	X15	Y15	Z15	X16	Y16	Z16	X17	Y17	Z17	X18	Y18	Z18	X19	Y19	Z19	X20	Y20	Z20	X21	Y21	Z21	X22	Y22	Z22	X23	Y23	Z23	X24	Y24	Z24	X25	Y25	Z25	X26	Y26	Z26	X27	Y27	Z27	X28	Y28	Z28	X29	Y29	Z29	X30	Y30	Z30	X31	Y31	Z31	X32	Y32	Z32	X33	Y33	Z33	X34	Y34	Z34	X35	Y35	Z35	X36	Y36	Z36	X37	Y37	Z37	X38	Y38	Z38	X39	Y39	Z39	X40	Y40	Z40	X41	Y41	Z41	X42	Y42	Z42	X43	Y43	Z43	X44	Y44	Z44	X45	Y45	Z45	X46	Y46	Z46	X47	Y47	Z47	X48	Y48	Z48	X49	Y49	Z49	X50	Y50	Z50	X51	Y51	Z51	X52	Y52	Z52	X53	Y53	Z53	

283	2.82	-626.7017211914062	956.7421875	-45.9670295715332	-548.5081176757812	949.8704833984375	-165.2228851318359	-591.9310913085938	1058.720947265625	-76.68589019775391	-354.8621215820312	1244.43017578125	56.89730453491211	-605.4209594726562	1182.967407226562	-82.49510955810547	-552.6470336914062	1447.722290039062	-33.13128662109375	-384.3526306152344	1359.104125976562	39.35615539550781	-654.1085815429688	1328.931884765625	20.97710418701172	-532.378173828125	1405.358154296875	-139.3774871826172	-403.0219421386719	1423.751342773438	-154.4602355957031	-353.8218078613281	1307.680297851562	-243.1814422607422	-290.5130004882812	1099.64697265625	-242.7816162109375	-388.7853698730469	1064.353759765625	-237.8906555175781	-208.0413818359375	951.0086059570312	-102.3286514282227	-199.1609954833984	914.8461303710938	-166.2498016357422	-247.1660461425781	1025.99462890625	-213.3861694335938	-152.5532531738281	801.0048828125	-48.74260330200195	-170.4726409912109	845.5242919921875	-134.9607696533203	-165.1743316650391	877.3574829101562	-71.50218200683594	-564.7830810546875	1414.220458984375	140.230712890625	-610.9315795898438	1352.62890625	202.3023223876953	-595.513671875	1072.250244140625	281.6750793457031	-633.001953125	1045.252807617188	231.9300537109375	-448.7732849121094	897.4571533203125	282.5114440917969	-524.9427490234375	867.4390869140625	318.0903930664062	-583.7308349609375	1015.870178222656	296.3251647949219	-418.1418151855469	742.3841552734375	298.7179565429688	-417.0197448730469	803.6950073242188	308.3798522949219	-488.2003173828125	787.1768188476562	329.156494140625	-526.26220703125	1638.9736328125	75.6534423828125	-330.0008544921875	1658.510131835938	12.07988357543945	-397.6520690917969	1660.2822265625	124.0486373901367	-446.859130859375	1641.611206054688	-84.43114471435547	-354.7988586425781	858.0135498046875	-178.7981109619141	-607.28515625	849.6082153320312	134.3751831054688	-487.1690673828125	891.0015869140625	141.3095245361328	-338.8251953125	902.15771484375	-61.95265960693359	-230.0845489501953	462.8957824707031	-78.16372680664062	-232.9780426025391	622.0480346679688	-96.08602142333984	-395.4192504882812	84.3472900390625	-172.5294036865234	-276.0836181640625	311.8448791503906	-118.7185440063477	-217.466064453125	53.39075088500977	-28.271484375	-295.7751770019531	62.7354736328125	-26.43704795837402	-257.1191101074219	66.34576416015625	-129.5132293701172	-464.2950439453125	90.02127838134766	-145.9149169921875	-574.8746337890625	453.0776977539062	77.98423004150391	-569.4599609375	711.1376342773438	149.4743347167969	-623.23828125	44.08879852294922	0.450329601764679	-584.9559326171875	305.7583923339844	65.42129516601562	-407.2296142578125	45.45419692993164	53.19252014160156	-450.0933532714844	50.26177978515625	-6.008652210235596	-514.1088256835938	48.99859237670898	80.55503845214844	-661.5533447265625	34.1462516784668	-71.83579254150391	
284	2.83	-622.6884765625	956.1558837890625	-44.26155853271484	-544.2457885742188	949.3614501953125	-163.2915954589844	-588.002197265625	1058.273071289062	-74.79949188232422	-351.0772094726562	1243.993530273438	59.16946792602539	-601.43701171875	1182.5	-80.47496032714844	-548.6881103515625	1447.283203125	-31.16218948364258	-380.5218505859375	1358.685668945312	41.48046112060547	-650.2899169921875	1328.591430664062	22.8135929107666	-528.4287719726562	1404.837890625	-137.2898712158203	-399.0195617675781	1423.106323242188	-152.5076599121094	-350.4832458496094	1306.797607421875	-241.3755798339844	-288.7859802246094	1098.093994140625	-241.7274017333984	-387.3929443359375	1063.91650390625	-236.2197113037109	-207.0693511962891	946.3213500976562	-104.0083312988281	-199.4114837646484	911.0474243164062	-168.5795593261719	-246.1492004394531	1023.428161621094	-213.6615753173828	-152.9711761474609	794.7486572265625	-53.57500076293945	-171.2366790771484	840.9383544921875	-138.7914733886719	-164.7442626953125	871.6842041015625	-74.81438446044922	-561.1458740234375	1413.859985351562	142.269775390625	-607.5916137695312	1352.142822265625	204.0832824707031	-593.142578125	1071.147827148438	282.01708984375	-630.55126953125	1044.513061523438	231.9999542236328	-446.7008972167969	896.1205444335938	282.33349609375	-523.0267944335938	865.9658203125	317.4169311523438	-581.5340576171875	1014.653442382812	296.3628234863281	-416.286865234375	740.878173828125	297.5663452148438	-415.1316528320312	802.1502685546875	307.6524963378906	-486.4049682617188	785.5675048828125	328.0497131347656	-522.486572265625	1638.568359375	77.27448272705078	-326.2315063476562	1658.191528320312	13.69763278961182	-393.9363098144531	1660.143676757812	125.6413955688477	-443.0731201171875	1640.906982421875	-82.78649139404297	-350.1722412109375	857.9848022460938	-176.2923431396484	-603.9909057617188	849.1046752929688	136.1584320068359	-483.7846374511719	890.4168701171875	143.3998718261719	-334.7303771972656	902.1222534179688	-59.32814025878906	-223.2738800048828	463.6098937988281	-73.1917724609375	-228.1213531494141	622.7168579101562	-92.35798645019531	-372.246826171875	77.20191192626953	-161.3659820556641	-262.902587890625	310.388671875	-111.1979522705078	-194.7761688232422	55.96001434326172	-14.63372802734375	-273.4756164550781	62.33016586303711	-13.82011890411377	-233.8188781738281	65.50208282470703	-116.5298461914062	-441.6158447265625	80.70112609863281	-135.6332855224609	-572.6377563476562	452.6984252929688	78.93488311767578	-566.4038696289062	710.561767578125	150.9784393310547	-623.2249755859375	44.15468978881836	0.3722928166389465	-583.486572265625	305.4550170898438	65.94832611083984	-407.2514343261719	45.47250366210938	53.21503448486328	-450.0853576660156	50.22912216186523	-6.078936576843262	-514.1163940429688	49.03048324584961	80.42229461669922	-661.5267333984375	34.24467086791992	-71.93982696533203	
285	2.84	-618.640625	955.5430908203125	-42.56852340698242	-539.9300537109375	948.826416015625	-161.3652954101562	-584.0361328125	1057.78759765625	-72.94749450683594	-347.2317504882812	1243.499145507812	61.41680908203125	-597.3834838867188	1181.998901367188	-78.48923492431641	-544.6493530273438	1446.805297851562	-29.1938304901123	-376.6025695800781	1358.22216796875	43.58407974243164	-646.3997192382812	1328.216918945312	24.65805435180664	-524.40283203125	1404.2783203125	-135.2161560058594	-394.9455261230469	1422.416137695312	-150.5723876953125	-347.0656433105469	1305.867797851562	-239.5727996826172	-286.9891662597656	1096.465942382812	-240.6510772705078	-385.9298400878906	1063.476196289062	-234.4836273193359	-206.201416015625	941.2905883789062	-105.9936981201172	-199.8810882568359	907.0030517578125	-171.2387237548828	-245.1719360351562	1020.73046875	-214.0524444580078	-153.7364349365234	788.0946655273438	-58.95568084716797	-172.3538360595703	836.0613403320312	-143.0793304443359	-164.5403594970703	865.6183471679688	-78.58975219726562	-557.4138793945312	1413.445068359375	144.3102264404297	-604.14208984375	1351.599609375	205.8618316650391	-590.7467651367188	1069.97216796875	282.2701721191406	-628.0759887695312	1043.753173828125	231.9768981933594	-444.7876281738281	894.556640625	282.0457153320312	-521.3063354492188	864.3486938476562	316.6050415039062	-579.35986328125	1013.353088378906	296.3015747070312	-414.7853393554688	739.10791015625	296.27490234375	-413.5255432128906	800.3358154296875	306.7925415039062	-484.9209594726562	783.779052734375	326.7921752929688	-518.6197509765625	1638.09326171875	78.9256591796875	-322.3804016113281	1657.8251953125	15.35611248016357	-390.1495361328125	1659.92236328125	127.2723846435547	-439.2080688476562	1640.17138671875	-81.10264587402344	-345.5513610839844	857.8478393554688	-173.8061828613281	-600.6846313476562	848.5800170898438	137.9277496337891	-480.3761901855469	889.8062744140625	145.4726409912109	-330.6126098632812	901.997802734375	-56.7279167175293	-216.5723876953125	464.2170104980469	-68.38835144042969	-223.3628997802734	623.2532958984375	-88.78440093994141	-349.0111083984375	70.8104248046875	-150.1543426513672	-249.7422485351562	309.1816711425781	-103.7271041870117	-172.8607940673828	58.8339958190918	-0.7250214815139771	-251.7971038818359	62.4228401184082	-1.08865487575531	-210.860107421875	65.08729553222656	-103.2981338500977	-418.8148193359375	72.31079864501953	-125.4756927490234	-570.3629760742188	452.2985229492188	79.8941650390625	-563.3292846679688	709.967529296875	152.4779510498047	-623.2080688476562	44.21700286865234	0.2935324609279633	-581.9850463867188	305.1372375488281	66.48342895507812	-407.2814636230469	45.4927978515625	53.23554611206055	-450.0556640625	50.19149398803711	-6.153354167938232	-514.1227416992188	49.06088638305664	80.29035949707031	-661.5076904296875	34.34623336791992	-72.0322265625	
286	2.85	-614.5547485351562	954.9103393554688	-40.87991333007812	-535.54833984375	948.263671875	-159.4393005371094	-580.0237426757812	1057.258544921875	-71.12193298339844	-343.3278198242188	1242.950439453125	63.63510513305664	-593.260009765625	1181.4599609375	-76.53501892089844	-540.5313110351562	1446.28564453125	-27.22772598266602	-372.5947570800781	1357.71337890625	45.66673278808594	-642.440673828125	1327.8056640625	26.50887298583984	-520.29736328125	1403.674560546875	-133.1606292724609	-390.801513671875	1421.6767578125	-148.6575012207031	-343.5679931640625	1304.886840820312	-237.7751922607422	-285.1000671386719	1094.766967773438	-239.5561828613281	-384.3815002441406	1063.023803710938	-232.6880187988281	-205.4474182128906	935.955810546875	-108.2853469848633	-200.5703430175781	902.7523193359375	-174.2137145996094	-244.2223052978516	1017.919799804688	-214.5567321777344	-154.8956451416016	781.0999755859375	-64.85303497314453	-173.8402557373047	830.9401245117188	-147.7909698486328	-164.6034545898438	859.2005615234375	-82.81674957275391	-553.587890625	1412.973022460938	146.3495178222656	-600.5824584960938	1350.9970703125	207.6373901367188	-588.3156127929688	1068.729370117188	282.4497680664062	-625.5643310546875	1042.976440429688	231.8780975341797	-443.0234069824219	892.77001953125	281.6509704589844	-519.7721557617188	862.595703125	315.6722106933594	-577.1964111328125	1011.975036621094	296.1560668945312	-413.6377868652344	737.0830078125	294.8572082519531	-412.1960754394531	798.257568359375	305.8063659667969	-483.7417602539062	781.8236083984375	325.4022216796875	-514.6569213867188	1637.548828125	80.60447692871094	-318.4416198730469	1657.406005859375	17.05245208740234	-386.2858581542969	1659.615356445312	128.93896484375	-435.2510986328125	1639.411376953125	-79.391845703125	-340.9323425292969	857.605224609375	-171.3395690917969	-597.3593139648438	848.0350952148438	139.6882934570312	-476.9450073242188	889.1660766601562	147.5338592529297	-326.4620971679688	901.787109375	-54.14358901977539	-209.9615325927734	464.7307739257812	-63.74703216552734	-218.6787567138672	623.655029296875	-85.35250091552734	-325.8099670410156	65.2049560546875	-138.9204254150391	-236.6197357177734	308.2526245117188	-96.30152130126953	-151.7761688232422	61.97795486450195	13.41794013977051	-230.8033447265625	62.99111175537109	11.7166223526001	-188.3197326660156	65.10178375244141	-89.85359191894531	-396.0066528320312	64.87264251708984	-115.4560852050781	-568.0643310546875	451.8824462890625	80.8626708984375	-560.2330322265625	709.3534545898438	153.9748077392578	-623.1843872070312	44.27788925170898	0.2139152437448502	-580.4674072265625	304.8100280761719	67.03101348876953	-407.3182678222656	45.51361465454102	53.2515754699707	-450.0017395019531	50.14837646484375	-6.229168891906738	-514.1262817382812	49.09003067016602	80.16138458251953	-661.5008544921875	34.45267486572266	-72.11046600341797	
